<mxfile host="app.diagrams.net" modified="2021-09-30T10:19:15.643Z" agent="5.0 (Windows NT 10.0; Win64; x64) AppleWebKit/537.36 (KHTML, like Gecko) Chrome/94.0.4606.61 Safari/537.36 Edg/94.0.992.31" etag="85mGj9Dz7nMR1BWZHZVu" version="15.3.8" type="github">
  <diagram id="1oRrGrSfyK5PHLuMS9tj" name="Page-1">
    <mxGraphModel dx="1422" dy="850" grid="1" gridSize="10" guides="1" tooltips="1" connect="1" arrows="1" fold="1" page="1" pageScale="1" pageWidth="850" pageHeight="1100" math="0" shadow="0">
      <root>
        <mxCell id="0" />
        <mxCell id="1" parent="0" />
        <mxCell id="ULyVsMfsbUZqisRMRo5V-9" style="edgeStyle=orthogonalEdgeStyle;rounded=0;orthogonalLoop=1;jettySize=auto;html=1;entryX=0;entryY=0.5;entryDx=0;entryDy=0;" edge="1" parent="1" source="ULyVsMfsbUZqisRMRo5V-1" target="ULyVsMfsbUZqisRMRo5V-8">
          <mxGeometry relative="1" as="geometry" />
        </mxCell>
        <mxCell id="ULyVsMfsbUZqisRMRo5V-11" style="edgeStyle=orthogonalEdgeStyle;rounded=0;orthogonalLoop=1;jettySize=auto;html=1;exitX=0.5;exitY=1;exitDx=0;exitDy=0;exitPerimeter=0;entryX=0;entryY=0.5;entryDx=0;entryDy=0;startArrow=classic;startFill=1;" edge="1" parent="1" source="ULyVsMfsbUZqisRMRo5V-1" target="ULyVsMfsbUZqisRMRo5V-10">
          <mxGeometry relative="1" as="geometry" />
        </mxCell>
        <mxCell id="ULyVsMfsbUZqisRMRo5V-1" value="DB" style="shape=cylinder3;whiteSpace=wrap;html=1;boundedLbl=1;backgroundOutline=1;size=15;" vertex="1" parent="1">
          <mxGeometry x="80" y="320" width="60" height="80" as="geometry" />
        </mxCell>
        <mxCell id="ULyVsMfsbUZqisRMRo5V-2" value="" style="rounded=1;whiteSpace=wrap;html=1;" vertex="1" parent="1">
          <mxGeometry x="200" y="189" width="120" height="60" as="geometry" />
        </mxCell>
        <mxCell id="ULyVsMfsbUZqisRMRo5V-3" value="" style="rounded=1;whiteSpace=wrap;html=1;" vertex="1" parent="1">
          <mxGeometry x="190" y="199" width="120" height="60" as="geometry" />
        </mxCell>
        <mxCell id="ULyVsMfsbUZqisRMRo5V-5" style="edgeStyle=orthogonalEdgeStyle;rounded=0;orthogonalLoop=1;jettySize=auto;html=1;exitX=0;exitY=0.5;exitDx=0;exitDy=0;entryX=0.5;entryY=0;entryDx=0;entryDy=0;entryPerimeter=0;" edge="1" parent="1" source="ULyVsMfsbUZqisRMRo5V-4" target="ULyVsMfsbUZqisRMRo5V-1">
          <mxGeometry relative="1" as="geometry" />
        </mxCell>
        <mxCell id="ULyVsMfsbUZqisRMRo5V-4" value="cc preprocessing workers (10 workers)" style="rounded=1;whiteSpace=wrap;html=1;" vertex="1" parent="1">
          <mxGeometry x="180" y="209" width="120" height="60" as="geometry" />
        </mxCell>
        <mxCell id="ULyVsMfsbUZqisRMRo5V-6" value="" style="rounded=1;whiteSpace=wrap;html=1;" vertex="1" parent="1">
          <mxGeometry x="200" y="310" width="120" height="60" as="geometry" />
        </mxCell>
        <mxCell id="ULyVsMfsbUZqisRMRo5V-7" value="" style="rounded=1;whiteSpace=wrap;html=1;" vertex="1" parent="1">
          <mxGeometry x="190" y="320" width="120" height="60" as="geometry" />
        </mxCell>
        <mxCell id="ULyVsMfsbUZqisRMRo5V-8" value="download workers&lt;br&gt;(50 workers)" style="rounded=1;whiteSpace=wrap;html=1;" vertex="1" parent="1">
          <mxGeometry x="180" y="330" width="120" height="60" as="geometry" />
        </mxCell>
        <mxCell id="ULyVsMfsbUZqisRMRo5V-10" value="workflow administration" style="rounded=1;whiteSpace=wrap;html=1;" vertex="1" parent="1">
          <mxGeometry x="180" y="420" width="120" height="60" as="geometry" />
        </mxCell>
        <mxCell id="ULyVsMfsbUZqisRMRo5V-12" value="" style="whiteSpace=wrap;html=1;aspect=fixed;fillColor=none;dashed=1;" vertex="1" parent="1">
          <mxGeometry x="40" y="165" width="350" height="350" as="geometry" />
        </mxCell>
        <mxCell id="ULyVsMfsbUZqisRMRo5V-13" value="64-96 cpu node" style="text;html=1;strokeColor=none;fillColor=none;align=center;verticalAlign=middle;whiteSpace=wrap;rounded=0;dashed=1;" vertex="1" parent="1">
          <mxGeometry x="130" y="140" width="170" height="20" as="geometry" />
        </mxCell>
      </root>
    </mxGraphModel>
  </diagram>
</mxfile>
